<svg width="946" height="777" viewBox="0 0 946 777" fill="none" xmlns="http://www.w3.org/2000/svg">
<path d="M0 703.737C0 703.737 235.69 774.861 309.94 776.941C384.189 779.02 756.117 725.781 825.597 703.737C895.078 681.692 965.095 427.901 941.237 380.485C917.379 333.069 564.022 279.07 497.266 279.07C430.51 279.07 0 353.522 0 353.522V703.737Z" fill="#CDFDFC"/>
<path d="M0 61.3105C0 61.3105 235.69 1.78993 309.94 0.0495625C384.189 -1.69081 756.116 42.8626 825.597 61.3105C895.078 79.7584 965.095 292.144 941.237 331.825C917.379 371.505 564.022 416.694 497.266 416.694C430.51 416.694 0 354.389 0 354.389V61.3105Z" fill="#61EFEB"/>
</svg>
