<svg width="66" height="61" viewBox="0 0 66 61" fill="none" xmlns="http://www.w3.org/2000/svg">
<path d="M32.41 8.33L51.31 47.39C52.1033 48.9767 52.5 50.1667 52.5 50.96C52.5 52.64 51.1467 54.1567 48.44 55.51C46.8533 56.3033 45.5933 56.7 44.66 56.7C43.7733 56.7 43.0267 56.49 42.42 56.07C41.86 55.65 41.44 55.2067 41.16 54.74C40.9267 54.2733 40.5767 53.5733 40.11 52.64L36.47 45.08H17.08L13.44 52.64C12.9733 53.5733 12.6 54.25 12.32 54.67C12.0867 55.09 11.6667 55.5333 11.06 56C10.5 56.42 9.75333 56.63 8.82 56.63C7.93333 56.63 6.69667 56.2333 5.11 55.44C2.40333 54.1333 1.05 52.64 1.05 50.96C1.05 50.1667 1.44667 48.9767 2.24 47.39L21.14 8.26C21.6533 7.18666 22.4233 6.32333 23.45 5.67C24.5233 5.01666 25.6433 4.69 26.81 4.69C29.33 4.69 31.1967 5.90333 32.41 8.33ZM26.74 25.13L22.12 34.72H31.43L26.74 25.13Z" fill="#61EFEB"/>
<path d="M57.15 13.35H61.2C62.3667 13.35 63.2167 13.5 63.75 13.8C64.2833 14.0667 64.6333 14.4833 64.8 15.05C65 15.6167 65.1 16.3833 65.1 17.35C65.1 18.2833 65.0167 19.0333 64.85 19.6C64.6833 20.1667 64.4 20.5667 64 20.8C63.4 21.1 62.55 21.25 61.45 21.25H57.15V25.3C57.15 26.4667 57 27.3167 56.7 27.85C56.4333 28.3833 56.0167 28.75 55.45 28.95C54.8833 29.1167 54.1167 29.2 53.15 29.2C52.2167 29.2 51.4667 29.1167 50.9 28.95C50.3333 28.75 49.9333 28.4333 49.7 28C49.4 27.3667 49.25 26.45 49.25 25.25V21.25H44.9C43.8 21.25 43 21.1167 42.5 20.85C42 20.5833 41.6667 20.1667 41.5 19.6C41.3333 19 41.25 18.2333 41.25 17.3C41.25 16.3667 41.3333 15.6167 41.5 15.05C41.7 14.45 42.0333 14.0333 42.5 13.8C43.1333 13.5 44.05 13.35 45.25 13.35H49.25V9.3C49.25 8.13333 49.3833 7.28333 49.65 6.75C49.9167 6.21666 50.3333 5.86666 50.9 5.7C51.5 5.5 52.2667 5.4 53.2 5.4C54.1333 5.4 54.8833 5.5 55.45 5.7C56.05 5.86666 56.4667 6.16666 56.7 6.6C57 7.23333 57.15 8.15 57.15 9.35V13.35Z" fill="#61EFEB"/>
</svg>
